<?xml version="1.0" encoding="UTF-8" standalone="no"?>
<!DOCTYPE svg PUBLIC "-//W3C//DTD SVG 1.1//EN" "http://www.w3.org/Graphics/SVG/1.1/DTD/svg11.dtd">
<svg width="100%" height="100%" viewBox="0 0 24 24" version="1.1" xmlns="http://www.w3.org/2000/svg" xmlns:xlink="http://www.w3.org/1999/xlink" xml:space="preserve" xmlns:serif="http://www.serif.com/" style="fill-rule:evenodd;clip-rule:evenodd;">
    <g transform="matrix(1,0,0,1,-74,0)">
        <g id="Mesa-de-trabajo1" serif:id="Mesa de trabajo1" transform="matrix(1,0,0,1,74,0)">
            <rect x="0" y="0" width="24" height="24" style="fill:none;"/>
            <g transform="matrix(0.85,0,0,0.9,1.358127,1.126892)">
                <path d="M2,7.5L22,7.5" style="fill:none;fill-rule:nonzero;stroke:url(#_Linear1);stroke-width:1.1px;"/>
            </g>
            <path d="M5.499,4C4.118,4 2.999,5.119 2.999,6.5L2.999,17.5C2.999,18.881 4.118,20 5.499,20L18.501,20C19.881,20 21.001,18.881 21.001,17.5L21.001,6.5C21.001,5.119 19.881,4 18.501,4L5.499,4ZM3.999,6.5C3.999,5.672 4.671,5 5.499,5L18.501,5C19.329,5 20.001,5.672 20.001,6.5L20.001,17.5C20.001,18.328 19.329,19 18.501,19L5.499,19C4.671,19 3.999,18.328 3.999,17.5L3.999,6.5Z" style="fill:url(#_Linear2);"/>
            <g transform="matrix(0.9,0,0,0.9,1.007105,1.721395)">
                <circle cx="5.5" cy="5" r="0.8" style="fill:rgb(248,113,113);"/>
            </g>
            <g transform="matrix(0.9,0,0,0.9,3.467288,1.723182)">
                <circle cx="5.5" cy="5" r="0.8" style="fill:rgb(251,191,36);"/>
            </g>
            <g transform="matrix(0.9,0,0,0.9,5.877893,1.757716)">
                <circle cx="5.5" cy="5" r="0.8" style="fill:rgb(52,211,153);"/>
            </g>
            <g transform="matrix(0.9,0,0,0.905263,-6.371743,0.337729)">
                <circle cx="17.5" cy="12.5" r="2.5" style="fill:none;stroke:rgb(59,130,246);stroke-opacity:0.6;stroke-width:0.8px;"/>
            </g>
            <g transform="matrix(0.9,0,0,0.905263,-6.371743,0.337729)">
                <circle cx="17.5" cy="12.5" r="1.2" style="fill:none;stroke:rgb(59,130,246);stroke-opacity:0.8;stroke-width:0.8px;"/>
            </g>
            <g transform="matrix(0.9,0,0,0.905263,-6.371743,0.337729)">
                <circle cx="17.5" cy="12.5" r="0.4" style="fill:rgb(59,130,246);"/>
            </g>
            <g transform="matrix(0.743613,-0.162051,0.161824,0.742573,2.772453,5.795127)">
                <path d="M8.5,10.5L8.5,17.5L10.5,15.5L12.2,19L13.3,18.3L11.6,15L14,15L8.5,10.5Z" style="fill:none;fill-rule:nonzero;stroke:rgb(122,61,237);stroke-width:1px;stroke-linejoin:round;"/>
            </g>
        </g>
    </g>
    <defs>
        <linearGradient id="_Linear1" x1="0" y1="0" x2="1" y2="0" gradientUnits="userSpaceOnUse" gradientTransform="matrix(20,0,0,0.000002,2,7.5)"><stop offset="0" style="stop-color:rgb(64,125,245);stop-opacity:1"/><stop offset="0.2" style="stop-color:rgb(87,100,242);stop-opacity:1"/><stop offset="0.43" style="stop-color:rgb(111,74,239);stop-opacity:1"/><stop offset="1" style="stop-color:rgb(122,62,237);stop-opacity:1"/></linearGradient>
        <linearGradient id="_Linear2" x1="0" y1="0" x2="1" y2="0" gradientUnits="userSpaceOnUse" gradientTransform="matrix(18.00168,0,0,16,2.99902,12)"><stop offset="0" style="stop-color:rgb(62,127,245);stop-opacity:1"/><stop offset="1" style="stop-color:rgb(123,60,237);stop-opacity:1"/></linearGradient>
    </defs>
</svg>
